<svg width="20" height="15" viewBox="0 0 20 15" fill="none" xmlns="http://www.w3.org/2000/svg">
<g id="Email">
<path id="Vector" d="M18.3334 2.94946V11.2828C18.3334 11.8353 18.1139 12.3652 17.7232 12.7559C17.3325 13.1466 16.8026 13.3661 16.2501 13.3661H3.75008C3.19755 13.3661 2.66764 13.1466 2.27694 12.7559C1.88624 12.3652 1.66675 11.8353 1.66675 11.2828V2.94946" stroke="url(#paint0_linear_320_274)" stroke-width="1.4" stroke-linecap="round" stroke-linejoin="round"/>
<path id="Vector_2" d="M18.3334 2.94954C18.3334 2.39701 18.1139 1.86711 17.7232 1.47641C17.3325 1.0857 16.8026 0.866211 16.2501 0.866211H3.75008C3.19755 0.866211 2.66764 1.0857 2.27694 1.47641C1.88624 1.86711 1.66675 2.39701 1.66675 2.94954L8.89591 7.46343C9.22702 7.67038 9.60962 7.7801 10.0001 7.7801C10.3905 7.7801 10.7731 7.67038 11.1042 7.46343L18.3334 2.94954Z" stroke="url(#paint1_linear_320_274)" stroke-width="1.4" stroke-linecap="round" stroke-linejoin="round"/>
</g>
<defs>
<linearGradient id="paint0_linear_320_274" x1="18.3334" y1="13.3661" x2="11.5398" y2="-1.54789" gradientUnits="userSpaceOnUse">
<stop stop-color="#004337"/>
<stop offset="0.571547" stop-color="#04B86C"/>
<stop offset="1" stop-color="#004337"/>
</linearGradient>
<linearGradient id="paint1_linear_320_274" x1="18.3334" y1="7.78011" x2="15.0222" y2="-3.17171" gradientUnits="userSpaceOnUse">
<stop stop-color="#004337"/>
<stop offset="0.571547" stop-color="#04B86C"/>
<stop offset="1" stop-color="#004337"/>
</linearGradient>
</defs>
</svg>
