<svg width="16" height="19" viewBox="0 0 16 19" fill="none" xmlns="http://www.w3.org/2000/svg">
<g id="Mark">
<path id="Vector" d="M14.8609 8.65577C14.8609 14.0346 9.35174 17.3484 8.20685 17.9795C8.14342 18.0145 8.07217 18.0329 7.99974 18.0329C7.9273 18.0329 7.85605 18.0145 7.79263 17.9795C6.64688 17.3484 1.1394 14.0346 1.1394 8.65577C1.1394 4.36779 3.71219 1.36621 8.00016 1.36621C12.2881 1.36621 14.8609 4.36779 14.8609 8.65577Z" stroke="url(#paint0_linear_320_259)" stroke-width="1.4" stroke-linecap="round" stroke-linejoin="round"/>
<path id="Vector_2" d="M4.56982 8.22677C4.56982 9.13656 4.93124 10.0091 5.57456 10.6524C6.21788 11.2957 7.09041 11.6571 8.0002 11.6571C8.91 11.6571 9.78253 11.2957 10.4258 10.6524C11.0692 10.0091 11.4306 9.13656 11.4306 8.22677C11.4306 7.31697 11.0692 6.44444 10.4258 5.80112C9.78253 5.1578 8.91 4.79639 8.0002 4.79639C7.09041 4.79639 6.21788 5.1578 5.57456 5.80112C4.93124 6.44444 4.56982 7.31697 4.56982 8.22677V8.22677Z" stroke="url(#paint1_linear_320_259)" stroke-width="1.4" stroke-linecap="round" stroke-linejoin="round"/>
</g>
<defs>
<linearGradient id="paint0_linear_320_259" x1="14.8609" y1="18.0329" x2="0.560356" y2="1.87882" gradientUnits="userSpaceOnUse">
<stop stop-color="#004337"/>
<stop offset="0.571547" stop-color="#04B86C"/>
<stop offset="1" stop-color="#004337"/>
</linearGradient>
<linearGradient id="paint1_linear_320_259" x1="11.4306" y1="11.6571" x2="5.78485" y2="3.91084" gradientUnits="userSpaceOnUse">
<stop stop-color="#004337"/>
<stop offset="0.571547" stop-color="#04B86C"/>
<stop offset="1" stop-color="#004337"/>
</linearGradient>
</defs>
</svg>
