<svg width="177" height="19" viewBox="0 0 177 19" fill="none" xmlns="http://www.w3.org/2000/svg">
<path d="M7.31339 18.395V10.1844H10.2081L10.6415 6.98452H7.31331V4.94155C7.31331 4.01512 7.58348 3.38381 8.97893 3.38381L10.7586 3.38301V0.521091C10.4508 0.482165 9.39429 0.39502 8.16531 0.39502C5.59929 0.39502 3.84255 1.88619 3.84255 4.62474V6.98452H0.94043V10.1844H3.84255V18.3949H7.31339V18.395Z" fill="url(#paint0_linear_281_2806)"/>
<path d="M45.8767 2.0965V2.09326H46.7207L47.029 2.15485C47.2346 2.19484 47.4213 2.24724 47.589 2.31208C47.7567 2.37691 47.9191 2.45255 48.0759 2.53899C48.2328 2.62543 48.3751 2.71351 48.5028 2.80319C48.6294 2.8918 48.743 2.98581 48.8437 3.08522C48.9432 3.18571 49.0985 3.21164 49.3095 3.16302C49.5205 3.11439 49.7477 3.04685 49.9912 2.96041C50.2346 2.87397 50.4754 2.77672 50.7135 2.66866C50.9515 2.5606 51.0965 2.49199 51.1485 2.46281C51.1993 2.43257 51.2264 2.41636 51.2296 2.41419L51.2328 2.40933L51.2491 2.40122L51.2653 2.39312L51.2815 2.38501L51.2978 2.37691L51.301 2.37205L51.3059 2.3688L51.3108 2.36556L51.314 2.3607L51.3302 2.35584L51.3465 2.3526L51.3432 2.37691L51.3383 2.40122L51.3302 2.42553L51.3221 2.44985L51.314 2.46606L51.3059 2.48226L51.2978 2.50658C51.2924 2.52278 51.287 2.54439 51.2815 2.57141C51.2761 2.59843 51.2247 2.70647 51.1273 2.89558C51.03 3.08468 50.9082 3.27648 50.7621 3.47098C50.6161 3.66548 50.4851 3.81242 50.3694 3.91185C50.2525 4.01234 50.1751 4.08257 50.1373 4.12255C50.0994 4.16361 50.0534 4.20142 49.9993 4.23601L49.9181 4.2895L49.9019 4.29761L49.8857 4.30571L49.8824 4.31057L49.8776 4.31381L49.8727 4.31706L49.8694 4.32192L49.8532 4.33002L49.837 4.33813L49.8338 4.34299L49.8289 4.34623L49.824 4.34947L49.8208 4.35433L49.8175 4.3592L49.8126 4.36244L49.8078 4.36568L49.8045 4.37054H49.8857L50.3401 4.27329C50.6431 4.20846 50.9326 4.13012 51.2085 4.03827L51.6467 3.8924L51.6954 3.87619L51.7198 3.86808L51.736 3.85998L51.7522 3.85187L51.7685 3.84377L51.7847 3.83567L51.8171 3.8308L51.8496 3.82756V3.85998L51.8415 3.86322L51.8334 3.86808L51.8301 3.87294L51.8253 3.87619L51.8204 3.87943L51.8171 3.88429L51.8139 3.88915L51.809 3.8924L51.8042 3.89564L51.8009 3.9005L51.7977 3.90536L51.7928 3.9086L51.7847 3.92481L51.7766 3.94102L51.7717 3.94426C51.7695 3.9475 51.7008 4.03934 51.5656 4.2198C51.4303 4.40134 51.3573 4.49318 51.3465 4.49535C51.3356 4.49859 51.3205 4.5148 51.301 4.54397C51.2826 4.57422 51.1679 4.69471 50.9569 4.90542C50.7459 5.11613 50.5393 5.3036 50.3369 5.46785C50.1335 5.63318 50.0307 5.83632 50.0285 6.07729C50.0253 6.31717 50.0128 6.5884 49.9912 6.89095C49.9695 7.19351 49.929 7.52037 49.8694 7.87156C49.8099 8.22275 49.718 8.61985 49.5935 9.06288C49.4691 9.5059 49.3176 9.93813 49.1391 10.3596C48.9605 10.781 48.7739 11.1592 48.5791 11.4941C48.3843 11.8291 48.2058 12.1128 48.0435 12.3451C47.8812 12.5774 47.7162 12.7962 47.5484 13.0015C47.3807 13.2068 47.1687 13.4381 46.9122 13.6952C46.6547 13.9513 46.514 14.0918 46.4902 14.1167C46.4653 14.1404 46.3593 14.229 46.1721 14.3825C45.986 14.537 45.7858 14.6915 45.5715 14.846C45.3584 14.9995 45.1625 15.1275 44.984 15.2302C44.8054 15.3328 44.5901 15.4501 44.338 15.5819C44.087 15.7148 43.8153 15.838 43.5232 15.9515C43.231 16.0649 42.9226 16.1703 42.598 16.2675C42.2734 16.3648 41.9596 16.4404 41.6566 16.4944C41.3537 16.5485 41.0101 16.5944 40.626 16.6322L40.0498 16.6889V16.697H38.9948V16.6889L38.8568 16.6808C38.7649 16.6754 38.6891 16.67 38.6296 16.6646C38.5701 16.6592 38.3456 16.6295 37.956 16.5755C37.5665 16.5215 37.2608 16.4674 37.039 16.4134C36.8172 16.3594 36.4871 16.2567 36.0489 16.1054C35.6107 15.9542 35.2357 15.8012 34.9241 15.6467C34.6135 15.4933 34.4188 15.396 34.3398 15.355C34.2619 15.315 34.1742 15.2653 34.0768 15.2059L33.9308 15.1167L33.9275 15.1119L33.9226 15.1086L33.9178 15.1054L33.9145 15.1005L33.8983 15.0924L33.8821 15.0843L33.8788 15.0794L33.874 15.0762L33.8691 15.073L33.8658 15.0681L33.8626 15.0632L33.8577 15.06H33.8496V15.0276L33.8658 15.0308L33.8821 15.0357L33.9551 15.0438C34.0038 15.0492 34.1364 15.0573 34.3528 15.0681C34.5692 15.0789 34.7991 15.0789 35.0426 15.0681C35.286 15.0573 35.5349 15.033 35.7892 14.9952C36.0435 14.9573 36.3438 14.8925 36.69 14.8007C37.0363 14.7088 37.3544 14.5997 37.6444 14.4732C37.9333 14.3457 38.1389 14.2507 38.2612 14.188C38.3823 14.1264 38.5674 14.0118 38.8162 13.8444L39.1896 13.5931L39.1928 13.5883L39.1977 13.585L39.2026 13.5818L39.2058 13.5769L39.209 13.5721L39.2139 13.5688L39.2188 13.5656L39.222 13.5607L39.2382 13.5558L39.2545 13.5526L39.2577 13.5364L39.2626 13.5202L39.2675 13.5169L39.2707 13.5121L39.1409 13.504C39.0543 13.4986 38.9704 13.4932 38.8893 13.4878C38.8081 13.4824 38.681 13.4581 38.5079 13.4148C38.3347 13.3716 38.1481 13.3068 37.9479 13.2203C37.7477 13.1339 37.553 13.0312 37.3636 12.9124C37.1742 12.7935 37.0373 12.6946 36.9529 12.6158C36.8696 12.5379 36.7614 12.4277 36.6283 12.2851C36.4963 12.1414 36.3816 11.9939 36.2842 11.8426C36.1869 11.6913 36.0938 11.5168 36.0051 11.3191L35.8703 11.0241L35.8622 10.9998L35.8541 10.9755L35.8492 10.9593L35.846 10.9431L35.8703 10.9463L35.8947 10.9512L36.0732 10.9755C36.1923 10.9917 36.3789 10.9971 36.6332 10.9917C36.8875 10.9863 37.0633 10.9755 37.1607 10.9593C37.2581 10.9431 37.3176 10.9322 37.3392 10.9268L37.3717 10.9187L37.4123 10.9106L37.4529 10.9025L37.4561 10.8977L37.461 10.8944L37.4659 10.8912L37.4691 10.8863L37.4366 10.8782L37.4042 10.8701L37.3717 10.862L37.3392 10.8539L37.3068 10.8458C37.2851 10.8404 37.2473 10.8296 37.1932 10.8134C37.1391 10.7972 36.993 10.7377 36.7549 10.6351C36.5169 10.5324 36.3275 10.4325 36.1869 10.3352C36.0458 10.2377 35.9114 10.131 35.7843 10.0159C35.6577 9.89923 35.5187 9.74903 35.3672 9.56534C35.2157 9.38165 35.0805 9.16823 34.9614 8.92511C34.8424 8.68198 34.7531 8.44966 34.6936 8.22814C34.6343 8.00793 34.5952 7.78278 34.5768 7.5555L34.5475 7.21512L34.5638 7.21836L34.58 7.22322L34.5962 7.23133L34.6125 7.23943L34.6287 7.24754L34.6449 7.25564L34.8965 7.3691C35.0642 7.44474 35.2725 7.50958 35.5214 7.5636C35.7703 7.61762 35.919 7.64735 35.9677 7.65275L36.0408 7.66085H36.1869L36.1836 7.65599L36.1787 7.65275L36.1739 7.6495L36.1706 7.64464L36.1674 7.63978L36.1625 7.63654L36.1576 7.6333L36.1544 7.62843L36.1382 7.62033L36.1219 7.61222L36.1187 7.60736L36.1138 7.60412L36.1089 7.60088L36.1057 7.59602L36.0895 7.58791L36.0732 7.57981L36.07 7.57495C36.0668 7.57277 36.0202 7.5382 35.9304 7.47121C35.8417 7.40314 35.7486 7.31508 35.6512 7.20701C35.5538 7.09895 35.4565 6.98549 35.3591 6.86664C35.2615 6.74751 35.1746 6.62005 35.0994 6.48574C35.0237 6.35068 34.9436 6.17885 34.8592 5.97031C34.7759 5.76285 34.7126 5.55376 34.6693 5.34305C34.626 5.13234 34.6016 4.92434 34.5962 4.71902C34.5908 4.51371 34.5962 4.33813 34.6125 4.19225C34.6287 4.04637 34.6612 3.88158 34.7098 3.69789C34.7585 3.5142 34.8289 3.3197 34.9208 3.11439L35.0588 2.80643L35.0669 2.78212L35.075 2.75781L35.0799 2.75456L35.0832 2.7497L35.0864 2.74484L35.0913 2.7416L35.0962 2.74484L35.0994 2.7497L35.1026 2.75456L35.1075 2.75781L35.1124 2.76105L35.1156 2.76591L35.1189 2.77077L35.1237 2.77401L35.1318 2.79022L35.14 2.80643L35.1448 2.80967L35.1481 2.81454L35.3672 3.05766C35.5133 3.21975 35.6864 3.40075 35.8866 3.60064C36.0868 3.80054 36.1977 3.90428 36.2193 3.91185C36.241 3.92048 36.268 3.94533 36.3005 3.9864C36.3329 4.02639 36.4411 4.12202 36.6251 4.27329C36.809 4.42457 37.0498 4.60017 37.3474 4.80007C37.6449 4.99996 37.975 5.19717 38.3374 5.39167C38.6999 5.58617 39.0895 5.76176 39.5061 5.91845C39.9227 6.07513 40.2148 6.17778 40.3825 6.22641C40.5503 6.27503 40.837 6.33716 41.2428 6.4128C41.6485 6.48845 41.9542 6.53707 42.1598 6.55868C42.3654 6.58028 42.5061 6.59272 42.5818 6.59596L42.6954 6.5992L42.6922 6.57489L42.6873 6.55057L42.6548 6.34797C42.6332 6.2129 42.6224 6.0238 42.6224 5.78067C42.6224 5.53755 42.6413 5.31334 42.6792 5.10803C42.7171 4.90271 42.7739 4.69471 42.8496 4.484C42.9254 4.27329 42.9995 4.10417 43.072 3.97668C43.1456 3.85025 43.2419 3.706 43.3609 3.54391C43.4799 3.38183 43.6341 3.21435 43.8235 3.04145C44.0128 2.86856 44.2292 2.71458 44.4727 2.57951C44.7162 2.44445 44.9407 2.34179 45.1463 2.27155C45.3519 2.20132 45.525 2.15539 45.6657 2.13378C45.8063 2.11218 45.8767 2.09975 45.8767 2.0965Z" fill="url(#paint1_linear_281_2806)"/>
<path fill-rule="evenodd" clip-rule="evenodd" d="M74.8496 9.39502C74.8496 5.79988 74.8496 4.00231 75.7063 2.70757C76.0889 2.12941 76.584 1.63427 77.1622 1.25171C78.4569 0.39502 80.2545 0.39502 83.8496 0.39502C87.4447 0.39502 89.2423 0.39502 90.5371 1.25171C91.1152 1.63427 91.6104 2.12941 91.9929 2.70757C92.8496 4.00231 92.8496 5.79988 92.8496 9.39502C92.8496 12.9902 92.8496 14.7877 91.9929 16.0825C91.6104 16.6606 91.1152 17.1558 90.5371 17.5383C89.2423 18.395 87.4447 18.395 83.8496 18.395C80.2545 18.395 78.4569 18.395 77.1622 17.5383C76.584 17.1558 76.0889 16.6606 75.7063 16.0825C74.8496 14.7877 74.8496 12.9902 74.8496 9.39502ZM88.5089 9.39525C88.5089 11.9686 86.4228 14.0547 83.8494 14.0547C81.2761 14.0547 79.19 11.9686 79.19 9.39525C79.19 6.82193 81.2761 4.73584 83.8494 4.73584C86.4228 4.73584 88.5089 6.82193 88.5089 9.39525ZM83.8494 12.4782C85.5521 12.4782 86.9325 11.0979 86.9325 9.39525C86.9325 7.69255 85.5521 6.31224 83.8494 6.31224C82.1468 6.31224 80.7664 7.69255 80.7664 9.39525C80.7664 11.0979 82.1468 12.4782 83.8494 12.4782ZM88.6929 5.59657C89.2975 5.59657 89.7877 5.1064 89.7877 4.50174C89.7877 3.89709 89.2975 3.40692 88.6929 3.40692C88.0882 3.40692 87.5981 3.89709 87.5981 4.50174C87.5981 5.1064 88.0882 5.59657 88.6929 5.59657Z" fill="url(#paint2_linear_281_2806)"/>
<path d="M115.85 3.31507C115.85 2.73786 116.052 2.26167 116.458 1.8865C116.863 1.51131 117.39 1.32373 118.039 1.32373C118.676 1.32373 119.191 1.50842 119.585 1.87784C119.991 2.2588 120.193 2.75518 120.193 3.36702C120.193 3.92113 119.996 4.38288 119.603 4.7523C119.197 5.13325 118.664 5.32373 118.004 5.32373H117.987C117.35 5.32373 116.834 5.13325 116.44 4.7523C116.047 4.37135 115.85 3.89227 115.85 3.31507ZM116.075 18.4666V6.89949H119.933V18.4666H116.075ZM122.07 18.4666H125.927V12.0077C125.927 11.6037 125.973 11.292 126.066 11.0726C126.228 10.6801 126.474 10.3482 126.804 10.077C127.134 9.80568 127.548 9.67005 128.047 9.67005C129.344 9.67005 129.992 10.5416 129.992 12.2848V18.4666H133.85V11.8345C133.85 10.126 133.444 8.83022 132.633 7.9471C131.823 7.06399 130.751 6.62243 129.419 6.62243C127.925 6.62243 126.761 7.26312 125.927 8.54451V8.57914H125.909L125.927 8.54451V6.89949H122.07C122.093 7.26889 122.104 8.41751 122.104 10.3454C122.104 12.2732 122.093 14.9803 122.07 18.4666Z" fill="url(#paint3_linear_281_2806)"/>
<path d="M167.288 16.3747L163.226 16.2988C161.911 16.2723 160.592 16.3251 159.303 16.051C157.341 15.6415 157.202 13.6336 157.057 11.9494C156.857 9.58155 156.934 7.17074 157.312 4.82266C157.526 3.50514 158.366 2.71897 159.665 2.63342C164.05 2.32295 168.465 2.35974 172.84 2.50459C173.302 2.51787 173.768 2.59044 174.223 2.67306C176.473 3.07597 176.528 5.35137 176.673 7.26683C176.819 9.20205 176.757 11.1472 176.48 13.0693C176.257 14.6607 175.83 15.9952 174.03 16.124C171.774 16.2925 169.57 16.4281 167.308 16.3849C167.308 16.3747 167.295 16.3747 167.288 16.3747ZM164.9 12.3457C166.6 11.3483 168.268 10.3675 169.958 9.3768C168.255 8.37939 166.59 7.3986 164.9 6.40788V12.3457Z" fill="url(#paint4_linear_281_2806)"/>
<defs>
<linearGradient id="paint0_linear_281_2806" x1="10.7586" y1="18.395" x2="-4.1695" y2="7.22283" gradientUnits="userSpaceOnUse">
<stop stop-color="#004337"/>
<stop offset="0.571547" stop-color="#04B86C"/>
<stop offset="1" stop-color="#004337"/>
</linearGradient>
<linearGradient id="paint1_linear_281_2806" x1="51.8496" y1="16.697" x2="40.7881" y2="-2.00958" gradientUnits="userSpaceOnUse">
<stop stop-color="#004337"/>
<stop offset="0.571547" stop-color="#04B86C"/>
<stop offset="1" stop-color="#004337"/>
</linearGradient>
<linearGradient id="paint2_linear_281_2806" x1="92.8496" y1="18.395" x2="78.0374" y2="-1.92832" gradientUnits="userSpaceOnUse">
<stop stop-color="#004337"/>
<stop offset="0.571547" stop-color="#04B86C"/>
<stop offset="1" stop-color="#004337"/>
</linearGradient>
<linearGradient id="paint3_linear_281_2806" x1="133.85" y1="18.4666" x2="119.967" y2="-1.53405" gradientUnits="userSpaceOnUse">
<stop stop-color="#004337"/>
<stop offset="0.571547" stop-color="#04B86C"/>
<stop offset="1" stop-color="#004337"/>
</linearGradient>
<linearGradient id="paint4_linear_281_2806" x1="176.75" y1="16.393" x2="166.898" y2="-2.72891" gradientUnits="userSpaceOnUse">
<stop stop-color="#004337"/>
<stop offset="0.571547" stop-color="#04B86C"/>
<stop offset="1" stop-color="#004337"/>
</linearGradient>
</defs>
</svg>
