<svg width="41" height="40" viewBox="0 0 41 40" fill="none" xmlns="http://www.w3.org/2000/svg">
<g id="Icon" clip-path="url(#clip0_281_2630)">
<path id="Vector" d="M32.5 0H8.5C4.08172 0 0.5 3.58172 0.5 8V32C0.5 36.4183 4.08172 40 8.5 40H32.5C36.9183 40 40.5 36.4183 40.5 32V8C40.5 3.58172 36.9183 0 32.5 0Z" fill="white" fill-opacity="0.1"/>
<path id="Vector_2" d="M12.5 22C13.6046 22 14.5 21.1046 14.5 20C14.5 18.8954 13.6046 18 12.5 18C11.3954 18 10.5 18.8954 10.5 20C10.5 21.1046 11.3954 22 12.5 22Z" fill="white" fill-opacity="0.3"/>
<path id="Vector_3" d="M20.5 22C21.6046 22 22.5 21.1046 22.5 20C22.5 18.8954 21.6046 18 20.5 18C19.3954 18 18.5 18.8954 18.5 20C18.5 21.1046 19.3954 22 20.5 22Z" fill="white" fill-opacity="0.3"/>
<path id="Vector_4" d="M28.5 22C29.6046 22 30.5 21.1046 30.5 20C30.5 18.8954 29.6046 18 28.5 18C27.3954 18 26.5 18.8954 26.5 20C26.5 21.1046 27.3954 22 28.5 22Z" fill="white" fill-opacity="0.3"/>
</g>
<defs>
<clipPath id="clip0_281_2630">
<rect width="40" height="40" fill="white" transform="translate(0.5)"/>
</clipPath>
</defs>
</svg>
