<svg width="41" height="40" viewBox="0 0 41 40" fill="none" xmlns="http://www.w3.org/2000/svg">
<g id="Icon" clip-path="url(#clip0_281_2635)">
<path id="Vector" d="M32.5 0H8.5C4.08172 0 0.5 3.58172 0.5 8V32C0.5 36.4183 4.08172 40 8.5 40H32.5C36.9183 40 40.5 36.4183 40.5 32V8C40.5 3.58172 36.9183 0 32.5 0Z" fill="white" fill-opacity="0.098"/>
<path id="Vector_2" d="M16.9789 18.946C17.6779 18.5372 32.6957 9.79849 33.039 9.59598C33.3823 9.39598 33.4011 8.78098 33.0141 8.55848C32.6296 8.33723 31.8993 7.91723 31.6284 7.75598C31.2416 7.54291 30.7715 7.54861 30.39 7.77098C30.1978 7.88348 17.3659 15.346 16.9377 15.591C16.4221 15.886 15.7892 15.891 15.2774 15.591L8.5 11.6085V14.9935C10.1478 15.966 14.2512 18.381 15.2449 18.9497C15.8379 19.2872 16.4046 19.2797 16.9789 18.946Z" fill="white" fill-opacity="0.294"/>
<path id="Vector_3" d="M16.9789 25.346C17.6779 24.9373 32.6957 16.1986 33.039 15.996C33.3823 15.7961 33.4011 15.1811 33.0141 14.9586C32.6296 14.7373 31.8993 14.3173 31.6284 14.1561C31.2416 13.943 30.7715 13.9487 30.39 14.1711C30.1978 14.2836 17.3659 21.7461 16.9377 21.9911C16.4221 22.2861 15.7892 22.291 15.2774 21.9911L8.5 18.0086V21.3935C10.1478 22.3661 14.2512 24.7811 15.2449 25.3498C15.8379 25.6873 16.4046 25.6798 16.9789 25.346Z" fill="white" fill-opacity="0.294"/>
<path id="Vector_4" d="M16.9789 32.146C17.6779 31.7372 32.6957 22.9985 33.039 22.796C33.3823 22.596 33.4011 21.981 33.0141 21.7585C32.6296 21.5372 31.8993 21.1172 31.6284 20.956C31.2416 20.7429 30.7715 20.7486 30.39 20.971C30.1978 21.0835 17.3659 28.546 16.9377 28.791C16.4221 29.086 15.7892 29.091 15.2774 28.791L8.5 24.8085V28.1935C10.1478 29.166 14.2512 31.581 15.2449 32.1497C15.8379 32.4872 16.4046 32.4797 16.9789 32.146Z" fill="white" fill-opacity="0.294"/>
</g>
<defs>
<clipPath id="clip0_281_2635">
<rect width="40" height="40" fill="white" transform="translate(0.5)"/>
</clipPath>
</defs>
</svg>
