<svg width="41" height="40" viewBox="0 0 41 40" fill="none" xmlns="http://www.w3.org/2000/svg">
<g id="Icon" clip-path="url(#clip0_281_2660)">
<g id="Clip path group">
<mask id="mask0_281_2660" style="mask-type:luminance" maskUnits="userSpaceOnUse" x="0" y="0" width="41" height="40">
<g id="clip0_337_1960">
<path id="Vector" d="M40.5 0H0.5V40H40.5V0Z" fill="white"/>
</g>
</mask>
<g mask="url(#mask0_281_2660)">
<g id="Group">
<path id="Vector_2" fill-rule="evenodd" clip-rule="evenodd" d="M25.04 0.0907887L2.9068 1.72559C1.1212 1.87999 0.5 3.04679 0.5 4.44519V28.7092C0.5 29.7984 0.8868 30.7304 1.82 31.976L7.0228 38.7412C7.8776 39.8304 8.6548 40.064 10.2868 39.9864L35.9896 38.4304C38.1628 38.2756 38.7856 37.2636 38.7856 35.5532V8.25599C38.7856 7.37199 38.4364 7.11719 37.4084 6.36279L30.1668 1.25719C28.4576 0.0143887 27.7588 -0.142411 25.04 0.0907887ZM10.868 7.80919C8.7692 7.95039 8.2932 7.98239 7.1012 7.01319L4.0708 4.60279C3.7628 4.29079 3.9176 3.90159 4.6936 3.82399L25.9708 2.26919C27.7576 2.11319 28.688 2.73599 29.3868 3.27999L33.036 5.92399C33.192 6.00279 33.58 6.46799 33.1132 6.46799L11.14 7.79079L10.868 7.80919ZM8.4212 35.32V12.1468C8.4212 11.1348 8.732 10.668 9.6624 10.5896L34.9 9.11199C35.756 9.03479 36.1428 9.57879 36.1428 10.5892V33.608C36.1428 34.62 35.9868 35.476 34.5896 35.5532L10.4388 36.9532C9.0416 37.0304 8.4212 36.5652 8.4212 35.32ZM32.2612 13.3892C32.416 14.0892 32.2612 14.7892 31.5612 14.8692L30.3972 15.1V32.2092C29.3864 32.7532 28.456 33.064 27.6784 33.064C26.4356 33.064 26.1252 32.6748 25.1944 31.5092L17.5824 19.5332V31.12L19.9904 31.6652C19.9904 31.6652 19.9904 33.0652 18.0476 33.0652L12.6916 33.376C12.5356 33.064 12.6916 32.2868 13.2344 32.132L14.6332 31.744V16.424L12.692 16.2668C12.536 15.5668 12.924 14.556 14.012 14.4776L19.7588 14.0908L27.6788 26.2216V15.4896L25.66 15.2576C25.504 14.4004 26.1252 13.7776 26.9012 13.7016L32.2612 13.3892Z" fill="white" fill-opacity="0.2"/>
</g>
</g>
</g>
</g>
<defs>
<clipPath id="clip0_281_2660">
<rect width="40" height="40" fill="white" transform="translate(0.5)"/>
</clipPath>
</defs>
</svg>
