<svg width="35" height="35" viewBox="0 0 35 35" fill="none" xmlns="http://www.w3.org/2000/svg">
<rect x="0.5" y="0.5" width="34" height="34" rx="17" stroke="white"/>
<path d="M23.5059 26.1705C24.736 25.6953 25.7084 24.7228 26.1837 23.4928C26.4087 22.9101 26.5662 22.2453 26.6089 21.2728C26.619 21.045 26.6269 20.8538 26.6342 20.662V14.1647C26.6292 14.0292 26.6235 13.888 26.6162 13.7294C26.5735 12.7569 26.416 12.0888 26.191 11.5095C25.9587 10.8947 25.601 10.3441 25.1331 9.88682C24.6752 9.42168 24.1212 9.06059 23.5132 8.83224C22.9306 8.60727 22.2658 8.44979 21.2933 8.40704C20.3135 8.36036 20.0025 8.34967 17.5182 8.34967C15.0339 8.34967 14.7223 8.36036 13.7465 8.4031C12.774 8.44585 12.1059 8.60333 11.5266 8.82831C10.9118 9.06059 10.3612 9.4183 9.90335 9.88682C9.43878 10.3446 9.07769 10.8986 8.84878 11.5061C8.62381 12.0888 8.46632 12.7536 8.42358 13.726C8.3769 14.7058 8.36621 15.0168 8.36621 17.5017C8.36621 19.9865 8.3769 20.2976 8.41964 21.2734C8.46239 22.2458 8.61987 22.9146 8.84541 23.4933C9.0777 24.1081 9.43878 24.6587 9.90335 25.1165C10.3612 25.5811 10.9152 25.9427 11.5232 26.1711C12.1059 26.3961 12.7707 26.5536 13.7431 26.5963C14.719 26.6396 15.03 26.6503 17.5148 26.6503C19.9997 26.6503 20.3102 26.6396 21.2865 26.5963C22.259 26.5536 22.9266 26.3955 23.5059 26.1705ZM17.5216 25.0052C15.0795 25.0052 14.7864 24.9945 13.8247 24.9517C12.931 24.9124 12.4484 24.7622 12.1267 24.6373C11.7302 24.4905 11.3691 24.2582 11.0755 23.9545C10.7718 23.6576 10.5389 23.3004 10.3927 22.9033C10.2678 22.5816 10.1176 22.0951 10.0783 21.2053C10.0355 20.2402 10.0248 19.9505 10.0248 17.5084C10.0248 15.0663 10.0355 14.7733 10.0783 13.8121C10.1176 12.9184 10.2678 12.4358 10.3927 12.1141C10.5395 11.717 10.7718 11.3559 11.0794 11.0629C11.3758 10.7592 11.7335 10.5269 12.13 10.3801C12.4518 10.2552 12.9383 10.105 13.8281 10.0657C14.7932 10.0229 15.0829 10.0122 17.5244 10.0122C19.9659 10.0122 20.2595 10.0229 21.2213 10.0657C22.115 10.105 22.5976 10.2552 22.9193 10.3801C23.3158 10.5269 23.6769 10.7592 23.9699 11.0629C24.2737 11.3598 24.5065 11.717 24.6527 12.1141C24.7776 12.4358 24.9278 12.9217 24.9671 13.8121C25.0099 14.7772 25.0206 15.0669 25.0206 17.5084C25.0206 19.95 25.0099 20.2362 24.9671 21.2014C24.9278 22.0951 24.7776 22.5777 24.6527 22.8994C24.3451 23.6969 23.7123 24.3297 22.9154 24.6368C22.5937 24.7616 22.1077 24.9118 21.2174 24.9512C20.2522 24.9939 19.9631 25.0052 17.5216 25.0052Z" fill="white"/>
<path d="M17.5184 12.7997C14.9227 12.7997 12.817 14.9055 12.817 17.5011C12.817 20.0968 14.9227 22.2026 17.5184 22.2026C20.1141 22.2026 22.2193 20.0968 22.2193 17.5011C22.2193 14.9055 20.1135 12.7997 17.5184 12.7997ZM17.5184 20.5501C15.8345 20.5501 14.4689 19.1845 14.4689 17.5006C14.4689 15.8166 15.8345 14.451 17.5184 14.451C19.2023 14.451 20.5679 15.8166 20.5679 17.5006C20.5679 19.1845 19.2023 20.5501 17.5184 20.5501Z" fill="white"/>
<path d="M23.5015 12.6139C23.5015 12.0075 23.01 11.5165 22.4037 11.5165C21.7974 11.5165 21.3063 12.0081 21.3063 12.6139C21.3063 13.2196 21.7979 13.7112 22.4037 13.7112C23.0094 13.7112 23.5015 13.2202 23.5015 12.6139Z" fill="white"/>
</svg>
