<svg width="35" height="35" viewBox="0 0 35 35" fill="none" xmlns="http://www.w3.org/2000/svg">
<rect x="0.5" y="0.5" width="34" height="34" rx="17" stroke="white"/>
<path d="M13.4323 24.6276V15.0091H10.2381V24.6276H13.4323ZM11.8359 13.696C12.9495 13.696 13.6429 12.9575 13.6429 12.0344C13.622 11.0904 12.9495 10.3724 11.857 10.3724C10.7638 10.3724 10.0498 11.0904 10.0498 12.0343C10.0498 12.9574 10.7429 13.696 11.8149 13.696L11.8359 13.696ZM15.2004 24.6276H18.3943V19.2568C18.3943 18.9697 18.4152 18.6818 18.4996 18.4768C18.7304 17.9022 19.2559 17.3074 20.1385 17.3074C21.2941 17.3074 21.7566 18.1894 21.7566 19.4825V24.6276H24.9505V19.1127C24.9505 16.1584 23.3749 14.7836 21.2734 14.7836C19.5504 14.7836 18.7937 15.7474 18.3733 16.4039H18.3946V15.0094H15.2005C15.2422 15.9117 15.2004 24.6276 15.2004 24.6276Z" fill="white"/>
</svg>
