<svg width="19" height="20" viewBox="0 0 19 20" fill="none" xmlns="http://www.w3.org/2000/svg">
<g id="Social Media Icon Square/Instagram">
<path id="Instagram" fill-rule="evenodd" clip-rule="evenodd" d="M0.849609 9.89502C0.849609 6.29988 0.849609 4.50231 1.7063 3.20757C2.08886 2.62941 2.584 2.13427 3.16216 1.75171C4.4569 0.89502 6.25447 0.89502 9.84961 0.89502C13.4447 0.89502 15.2423 0.89502 16.5371 1.75171C17.1152 2.13427 17.6104 2.62941 17.9929 3.20757C18.8496 4.50231 18.8496 6.29988 18.8496 9.89502C18.8496 13.4902 18.8496 15.2877 17.9929 16.5825C17.6104 17.1606 17.1152 17.6558 16.5371 18.0383C15.2423 18.895 13.4447 18.895 9.84961 18.895C6.25447 18.895 4.4569 18.895 3.16216 18.0383C2.584 17.6558 2.08886 17.1606 1.7063 16.5825C0.849609 15.2877 0.849609 13.4902 0.849609 9.89502ZM14.5089 9.89525C14.5089 12.4686 12.4228 14.5547 9.84945 14.5547C7.27613 14.5547 5.19004 12.4686 5.19004 9.89525C5.19004 7.32193 7.27613 5.23584 9.84945 5.23584C12.4228 5.23584 14.5089 7.32193 14.5089 9.89525ZM9.84945 12.9782C11.5521 12.9782 12.9325 11.5979 12.9325 9.89525C12.9325 8.19255 11.5521 6.81224 9.84945 6.81224C8.14675 6.81224 6.76645 8.19255 6.76645 9.89525C6.76645 11.5979 8.14675 12.9782 9.84945 12.9782ZM14.6929 6.09657C15.2975 6.09657 15.7877 5.6064 15.7877 5.00174C15.7877 4.39709 15.2975 3.90692 14.6929 3.90692C14.0882 3.90692 13.5981 4.39709 13.5981 5.00174C13.5981 5.6064 14.0882 6.09657 14.6929 6.09657Z" fill="url(#paint0_linear_281_2813)"/>
</g>
<defs>
<linearGradient id="paint0_linear_281_2813" x1="18.8496" y1="18.895" x2="4.03738" y2="-1.42832" gradientUnits="userSpaceOnUse">
<stop stop-color="#004337"/>
<stop offset="0.571547" stop-color="#04B86C"/>
<stop offset="1" stop-color="#004337"/>
</linearGradient>
</defs>
</svg>
