<svg width="37" height="37" viewBox="0 0 37 37" fill="none" xmlns="http://www.w3.org/2000/svg">
<path opacity="0.1" fill-rule="evenodd" clip-rule="evenodd" d="M18.5 36C28.165 36 36 28.165 36 18.5C36 8.83502 28.165 1 18.5 1C8.83502 1 1 8.83502 1 18.5C1 28.165 8.83502 36 18.5 36Z" stroke="white" stroke-width="1.5"/>
<path d="M22.9991 20.3333C22.6052 20.3359 22.2168 20.4258 21.8618 20.5964C21.5068 20.767 21.1939 21.0141 20.9458 21.32L17.5458 19.7533C17.7056 19.2638 17.7056 18.7362 17.5458 18.2467L20.9458 16.68C21.3469 17.164 21.906 17.4907 22.5246 17.6026C23.1431 17.7144 23.7813 17.6041 24.3264 17.2913C24.8716 16.9784 25.2887 16.483 25.5042 15.8925C25.7196 15.302 25.7196 14.6544 25.504 14.0639C25.2884 13.4735 24.8712 12.9782 24.326 12.6654C23.7808 12.3526 23.1426 12.2425 22.5241 12.3544C21.9056 12.4664 21.3465 12.7932 20.9455 13.2773C20.5445 13.7613 20.3274 14.3714 20.3325 15C20.3345 15.1588 20.3501 15.3172 20.3791 15.4733L16.8591 17.0933C16.4838 16.7264 16.0086 16.4783 15.493 16.3803C14.9774 16.2822 14.4443 16.3385 13.9605 16.5421C13.4767 16.7457 13.0638 17.0875 12.7734 17.5247C12.483 17.9619 12.3281 18.4751 12.3281 19C12.3281 19.5249 12.483 20.0381 12.7734 20.4753C13.0638 20.9125 13.4767 21.2543 13.9605 21.4579C14.4443 21.6615 14.9774 21.7178 15.493 21.6197C16.0086 21.5217 16.4838 21.2736 16.8591 20.9067L20.3791 22.5267C20.3501 22.6828 20.3345 22.8412 20.3325 23C20.3325 23.5274 20.4889 24.043 20.7819 24.4815C21.0749 24.92 21.4914 25.2618 21.9786 25.4637C22.4659 25.6655 23.0021 25.7183 23.5194 25.6154C24.0366 25.5125 24.5118 25.2586 24.8847 24.8856C25.2577 24.5127 25.5117 24.0375 25.6146 23.5202C25.7174 23.003 25.6646 22.4668 25.4628 21.9795C25.261 21.4922 24.9192 21.0758 24.4806 20.7827C24.0421 20.4897 23.5265 20.3333 22.9991 20.3333ZM22.9991 13.6667C23.2628 13.6667 23.5206 13.7449 23.7399 13.8914C23.9591 14.0379 24.13 14.2461 24.231 14.4898C24.3319 14.7334 24.3583 15.0015 24.3068 15.2601C24.2554 15.5188 24.1284 15.7563 23.9419 15.9428C23.7555 16.1293 23.5179 16.2563 23.2592 16.3077C23.0006 16.3592 22.7325 16.3328 22.4889 16.2318C22.2452 16.1309 22.037 15.96 21.8905 15.7408C21.744 15.5215 21.6658 15.2637 21.6658 15C21.6658 14.6464 21.8063 14.3072 22.0563 14.0572C22.3064 13.8071 22.6455 13.6667 22.9991 13.6667ZM14.9991 20.3333C14.7354 20.3333 14.4776 20.2551 14.2584 20.1086C14.0391 19.9621 13.8682 19.7539 13.7673 19.5102C13.6664 19.2666 13.64 18.9985 13.6914 18.7399C13.7429 18.4812 13.8698 18.2437 14.0563 18.0572C14.2428 17.8707 14.4804 17.7437 14.739 17.6923C14.9976 17.6408 15.2657 17.6672 15.5094 17.7682C15.753 17.8691 15.9612 18.04 16.1077 18.2592C16.2543 18.4785 16.3325 18.7363 16.3325 19C16.3325 19.3536 16.192 19.6928 15.9419 19.9428C15.6919 20.1929 15.3527 20.3333 14.9991 20.3333ZM22.9991 24.3333C22.7354 24.3333 22.4776 24.2551 22.2584 24.1086C22.0391 23.9621 21.8682 23.7539 21.7673 23.5102C21.6664 23.2666 21.64 22.9985 21.6914 22.7399C21.7429 22.4812 21.8698 22.2437 22.0563 22.0572C22.2428 21.8707 22.4804 21.7437 22.739 21.6923C22.9976 21.6408 23.2657 21.6672 23.5094 21.7682C23.753 21.8691 23.9612 22.04 24.1077 22.2592C24.2543 22.4785 24.3325 22.7363 24.3325 23C24.3325 23.3536 24.192 23.6928 23.9419 23.9428C23.6919 24.1929 23.3527 24.3333 22.9991 24.3333Z" fill="white"/>
</svg>
