<svg width="37" height="37" viewBox="0 0 37 37" fill="none" xmlns="http://www.w3.org/2000/svg">
<path opacity="0.1" fill-rule="evenodd" clip-rule="evenodd" d="M18.5 36C28.165 36 36 28.165 36 18.5C36 8.83502 28.165 1 18.5 1C8.83502 1 1 8.83502 1 18.5C1 28.165 8.83502 36 18.5 36Z" stroke="white" stroke-width="1.5"/>
<path d="M22.7005 13.2733C22.0893 12.6559 21.3613 12.1664 20.5589 11.8333C19.7566 11.5002 18.8959 11.3303 18.0272 11.3333C14.3872 11.3333 11.4205 14.3 11.4205 17.94C11.4205 19.1066 11.7272 20.24 12.3005 21.24L11.3672 24.6666L14.8672 23.7466C15.8339 24.2733 16.9205 24.5533 18.0272 24.5533C21.6672 24.5533 24.6339 21.5866 24.6339 17.9466C24.6339 16.18 23.9472 14.52 22.7005 13.2733ZM18.0272 23.4333C17.0405 23.4333 16.0739 23.1666 15.2272 22.6666L15.0272 22.5466L12.9472 23.0933L13.5005 21.0666L13.3672 20.86C12.819 19.9846 12.5279 18.9728 12.5272 17.94C12.5272 14.9133 14.9939 12.4466 18.0205 12.4466C19.4872 12.4466 20.8672 13.02 21.9005 14.06C22.4122 14.5693 22.8177 15.1751 23.0934 15.8422C23.3692 16.5094 23.5099 17.2247 23.5072 17.9466C23.5205 20.9733 21.0539 23.4333 18.0272 23.4333ZM21.0405 19.3266C20.8739 19.2466 20.0605 18.8466 19.9139 18.7866C19.7605 18.7333 19.6539 18.7066 19.5405 18.8666C19.4272 19.0333 19.1139 19.4066 19.0205 19.5133C18.9272 19.6266 18.8272 19.64 18.6605 19.5533C18.4939 19.4733 17.9605 19.2933 17.3339 18.7333C16.8405 18.2933 16.5139 17.7533 16.4139 17.5866C16.3205 17.42 16.4005 17.3333 16.4872 17.2466C16.5605 17.1733 16.6539 17.0533 16.7339 16.96C16.8139 16.8666 16.8472 16.7933 16.9005 16.6866C16.9539 16.5733 16.9272 16.48 16.8872 16.4C16.8472 16.32 16.5139 15.5066 16.3805 15.1733C16.2472 14.8533 16.1072 14.8933 16.0072 14.8866H15.6872C15.5739 14.8866 15.4005 14.9266 15.2472 15.0933C15.1005 15.26 14.6739 15.66 14.6739 16.4733C14.6739 17.2866 15.2672 18.0733 15.3472 18.18C15.4272 18.2933 16.5139 19.96 18.1672 20.6733C18.5605 20.8466 18.8672 20.9466 19.1072 21.02C19.5005 21.1466 19.8605 21.1266 20.1472 21.0866C20.4672 21.04 21.1272 20.6866 21.2605 20.3C21.4005 19.9133 21.4005 19.5866 21.3539 19.5133C21.3072 19.44 21.2072 19.4066 21.0405 19.3266Z" fill="white"/>
</svg>
